<?xml version="1.0" encoding="utf-8"?>
<!-- Svg Vector Icons : http://www.onlinewebfonts.com/icon -->
<!DOCTYPE svg PUBLIC "-//W3C//DTD SVG 1.1//EN" "http://www.w3.org/Graphics/SVG/1.1/DTD/svg11.dtd">
<svg version="1.1" xmlns="http://www.w3.org/2000/svg" xmlns:xlink="http://www.w3.org/1999/xlink" x="0px" y="0px" viewBox="0 0 256 256" enable-background="new 0 0 256 256" xml:space="preserve">
<metadata> Svg Vector Icons : http://www.onlinewebfonts.com/icon </metadata>
<g><g><path fill="#000000" d="M29.7,69h196.7c10.9,0,19.7-8.8,19.7-19.7s-8.8-19.7-19.7-19.7H29.7C18.8,29.7,10,38.5,10,49.3S18.8,69,29.7,69z"/><path fill="#000000" d="M226.3,108.3H29.7c-10.9,0-19.7,8.8-19.7,19.7c0,10.9,8.8,19.7,19.7,19.7h196.7c10.9,0,19.7-8.8,19.7-19.7C246,117.1,237.2,108.3,226.3,108.3z"/><path fill="#000000" d="M226.3,187H29.7c-10.9,0-19.7,8.8-19.7,19.7c0,10.9,8.8,19.7,19.7,19.7h196.7c10.9,0,19.7-8.8,19.7-19.7C246,195.8,237.2,187,226.3,187z"/></g></g>
</svg>