<svg width="65" height="65" viewBox="0 0 65 65" fill="none" xmlns="http://www.w3.org/2000/svg">
<g clip-path="url(#clip0_109433_1721)">
<path d="M43.5393 34.6604C40.6594 30.1677 35.7546 27.4851 30.4187 27.4851C25.0828 27.4851 20.178 30.1677 17.2986 34.6604L10.3591 45.4861C9.20776 47.282 8.67651 49.3572 8.8225 51.4856C8.9685 53.6145 9.77856 55.5969 11.1648 57.22C12.552 58.8416 14.385 59.95 16.4656 60.4255C18.5461 60.9011 20.679 60.698 22.6331 59.8391L22.7639 59.781C27.6809 57.6628 33.2996 57.6824 38.2039 59.8391C39.469 60.3953 40.8093 60.6765 42.1619 60.6765C42.8972 60.6765 43.637 60.593 44.3699 60.426C46.4504 59.9509 48.2834 58.8425 49.6711 57.2205C51.0579 55.5989 51.8684 53.616 52.0149 51.4866C52.1614 49.3572 51.6301 47.2825 50.4788 45.4856L43.5393 34.6604Z" fill="#3C184E" fill-opacity="0.05"/>
<path d="M12.2283 34.6462C14.2928 33.8532 15.8611 32.1897 16.6443 29.9616C17.3899 27.8415 17.3289 25.448 16.472 23.2214C15.6146 20.9963 14.055 19.1799 12.0804 18.1062C10.0062 16.9787 7.72735 16.7951 5.66631 17.5896C1.51983 19.1838 -0.383004 24.3078 1.4251 29.0144C2.86944 32.7605 6.23809 35.1252 9.64385 35.1252C10.5135 35.1252 11.3856 34.9709 12.2283 34.6462Z" fill="#3C184E" fill-opacity="0.05"/>
<path d="M25.6931 26.1648C30.8767 26.1648 35.094 21.3601 35.094 15.4543C35.094 9.54712 30.8767 4.74146 25.6931 4.74146C20.51 4.74146 16.2932 9.54712 16.2932 15.4543C16.2932 21.3601 20.51 26.1648 25.6931 26.1648Z" fill="#3C184E" fill-opacity="0.05"/>
<path d="M41.9286 28.7961H41.9291C42.7264 29.0608 43.5399 29.1872 44.35 29.1872C48.1302 29.1872 51.8143 26.4358 53.2201 22.2072C54.0296 19.7732 53.9764 17.1994 53.0702 14.9607C52.1219 12.6169 50.3646 10.9157 48.1214 10.1701C45.8778 9.42453 43.4515 9.73556 41.2889 11.0451C39.223 12.2961 37.64 14.3259 36.8314 16.76C35.1249 21.8947 37.4115 27.2942 41.9286 28.7961V28.7961Z" fill="#3C184E" fill-opacity="0.05"/>
<path d="M61.7257 27.5462L61.7243 27.5448C58.1496 24.9042 52.8034 26.0487 49.8058 30.0975C46.8112 34.1483 47.2794 39.5941 50.8488 42.2367C52.1505 43.201 53.6886 43.662 55.2628 43.662C58.0065 43.662 60.861 42.2616 62.7692 39.6864C65.7633 35.6356 65.2955 30.1898 61.7257 27.5462V27.5462Z" fill="#3C184E" fill-opacity="0.05"/>
</g>
<defs>
<clipPath id="clip0_109433_1721">
<rect width="64" height="64" fill="white" transform="translate(0.741455 0.741455)"/>
</clipPath>
</defs>
</svg>
